NotoSansHebrew-CondensedLight.ufo
<glyph name="etnahtaleft-hb" format="2">
  <unicode hex="0591"/>
  <note>
uni0591
</note>
  <anchor x="106" y="0" name="_bottomleft"/>
  <outline>
    <contour>
      <point x="50" y="-202" type="line"/>
      <point x="75" y="-202" type="line"/>
      <point x="75" y="-185" type="line" smooth="yes"/>
      <point x="75" y="-158"/>
      <point x="84" y="-147"/>
      <point x="107" y="-147" type="curve" smooth="yes"/>
      <point x="129" y="-147"/>
      <point x="138" y="-158"/>
      <point x="138" y="-185" type="curve" smooth="yes"/>
      <point x="138" y="-202" type="line"/>
      <point x="163" y="-202" type="line"/>
      <point x="163" y="-185" type="line" smooth="yes"/>
      <point x="163" y="-147"/>
      <point x="149" y="-129"/>
      <point x="119" y="-124" type="curve"/>
      <point x="119" y="-82" type="line"/>
      <point x="93" y="-82" type="line"/>
      <point x="93" y="-124" type="line"/>
      <point x="64" y="-129"/>
      <point x="50" y="-147"/>
      <point x="50" y="-185" type="curve" smooth="yes"/>
    </contour>
  </outline>
</glyph>
<glyph name="segolta-hb" format="2">
  <unicode hex="0592"/>
  <note>
uni0592
</note>
  <anchor x="110" y="528" name="_topleft"/>
  <outline>
    <contour>
      <point x="110" y="744" type="curve" smooth="yes"/>
      <point x="122" y="744"/>
      <point x="132" y="754"/>
      <point x="132" y="767" type="curve" smooth="yes"/>
      <point x="132" y="779"/>
      <point x="122" y="789"/>
      <point x="110" y="789" type="curve" smooth="yes"/>
      <point x="97" y="789"/>
      <point x="87" y="779"/>
      <point x="87" y="767" type="curve" smooth="yes"/>
      <point x="87" y="754"/>
      <point x="97" y="744"/>
    </contour>
    <contour>
      <point x="73" y="655" type="curve" smooth="yes"/>
      <point x="85" y="655"/>
      <point x="95" y="665"/>
      <point x="95" y="678" type="curve" smooth="yes"/>
      <point x="95" y="690"/>
      <point x="85" y="700"/>
      <point x="73" y="700" type="curve" smooth="yes"/>
      <point x="60" y="700"/>
      <point x="50" y="690"/>
      <point x="50" y="678" type="curve" smooth="yes"/>
      <point x="50" y="665"/>
      <point x="60" y="655"/>
    </contour>
    <contour>
      <point x="148" y="655" type="curve" smooth="yes"/>
      <point x="160" y="655"/>
      <point x="170" y="665"/>
      <point x="170" y="678" type="curve" smooth="yes"/>
      <point x="170" y="690"/>
      <point x="160" y="700"/>
      <point x="148" y="700" type="curve" smooth="yes"/>
      <point x="135" y="700"/>
      <point x="125" y="690"/>
      <point x="125" y="678" type="curve" smooth="yes"/>
      <point x="125" y="665"/>
      <point x="135" y="655"/>
    </contour>
  </outline>
</glyph>
<glyph name="shalshelet-hb" format="2">
  <unicode hex="0593"/>
  <note>
uni0593
</note>
  <anchor x="94" y="528" name="_top"/>
  <outline>
    <contour>
      <point x="50" y="650" type="line"/>
      <point x="86" y="650" type="line"/>
      <point x="132" y="673" type="line"/>
      <point x="92" y="696" type="line"/>
      <point x="132" y="719" type="line"/>
      <point x="92" y="742" type="line"/>
      <point x="132" y="765" type="line"/>
      <point x="95" y="765" type="line"/>
      <point x="55" y="742" type="line"/>
      <point x="95" y="719" type="line"/>
      <point x="55" y="696" type="line"/>
      <point x="95" y="673" type="line"/>
    </contour>
  </outline>
</glyph>
<glyph name="zaqefqatan-hb" format="2">
  <unicode hex="0594"/>
  <note>
uni0594
</note>
  <anchor x="72" y="528" name="_top"/>
  <outline>
    <contour>
      <point x="72" y="744" type="curve" smooth="yes"/>
      <point x="84" y="744"/>
      <point x="94" y="754"/>
      <point x="94" y="767" type="curve" smooth="yes"/>
      <point x="94" y="779"/>
      <point x="84" y="789"/>
      <point x="72" y="789" type="curve" smooth="yes"/>
      <point x="59" y="789"/>
      <point x="49" y="779"/>
      <point x="49" y="767" type="curve" smooth="yes"/>
      <point x="49" y="754"/>
      <point x="59" y="744"/>
    </contour>
    <contour>
      <point x="73" y="655" type="curve" smooth="yes"/>
      <point x="85" y="655"/>
      <point x="95" y="665"/>
      <point x="95" y="678" type="curve" smooth="yes"/>
      <point x="95" y="690"/>
      <point x="85" y="700"/>
      <point x="73" y="700" type="curve" smooth="yes"/>
      <point x="60" y="700"/>
      <point x="50" y="690"/>
      <point x="50" y="678" type="curve" smooth="yes"/>
      <point x="50" y="665"/>
      <point x="60" y="655"/>
    </contour>
  </outline>
</glyph>
<glyph name="reviamugrash-hb" format="2">
  <unicode hex="0597"/>
  <note>
uni0597
</note>
  <anchor x="110" y="528" name="_topleft"/>
  <outline>
    <contour>
      <point x="88" y="650" type="line"/>
      <point x="126" y="692" type="line"/>
      <point x="88" y="735" type="line"/>
      <point x="50" y="692" type="line"/>
    </contour>
  </outline>
</glyph>
<glyph name="tevirleft-hb" format="2">
  <unicode hex="059B"/>
  <note>
uni059B
</note>
  <anchor x="145" y="0" name="_bottomleft"/>
  <outline>
    <contour>
      <point x="50" y="-188" type="line"/>
      <point x="126" y="-188"/>
      <point x="159" y="-149"/>
      <point x="159" y="-82" type="curve"/>
      <point x="130" y="-82" type="line"/>
      <point x="130" y="-131"/>
      <point x="110" y="-159"/>
      <point x="50" y="-159" type="curve"/>
    </contour>
    <contour>
      <point x="74" y="-123" type="curve" smooth="yes"/>
      <point x="87" y="-123"/>
      <point x="97" y="-113"/>
      <point x="97" y="-100" type="curve" smooth="yes"/>
      <point x="97" y="-87"/>
      <point x="87" y="-77"/>
      <point x="74" y="-77" type="curve" smooth="yes"/>
      <point x="62" y="-77"/>
      <point x="52" y="-87"/>
      <point x="52" y="-100" type="curve" smooth="yes"/>
      <point x="52" y="-113"/>
      <point x="62" y="-123"/>
    </contour>
  </outline>
</glyph>
<glyph name="gereshmuqdam-hb" format="2">
  <unicode hex="059D"/>
  <note>
uni059D
</note>
  <anchor x="119" y="528" name="_top"/>
  <outline>
    <contour>
      <point x="50" y="650" type="curve"/>
      <point x="79" y="650" type="line"/>
      <point x="79" y="699"/>
      <point x="99" y="727"/>
      <point x="159" y="727" type="curve"/>
      <point x="159" y="756" type="line"/>
      <point x="83" y="756"/>
      <point x="50" y="717"/>
    </contour>
  </outline>
</glyph>
<glyph name="gershayimaccent-hb" format="2">
  <unicode hex="059E"/>
  <note>
uni059E
</note>
  <anchor x="119" y="528" name="_top"/>
  <outline>
    <contour>
      <point x="159" y="650" type="curve"/>
      <point x="188" y="650" type="line"/>
      <point x="188" y="699"/>
      <point x="208" y="727"/>
      <point x="268" y="727" type="curve"/>
      <point x="268" y="756" type="line"/>
      <point x="192" y="756"/>
      <point x="159" y="717"/>
    </contour>
    <contour>
      <point x="50" y="650" type="curve"/>
      <point x="79" y="650" type="line"/>
      <point x="79" y="699"/>
      <point x="99" y="727"/>
      <point x="159" y="727" type="curve"/>
      <point x="159" y="756" type="line"/>
      <point x="83" y="756"/>
      <point x="50" y="717"/>
    </contour>
  </outline>
</glyph>
<glyph name="qarneypara-hb" format="2">
  <unicode hex="059F"/>
  <note>
uni059F
</note>
  <anchor x="191" y="528" name="_top"/>
  <outline>
    <contour>
      <point x="222" y="650" type="line"/>
      <point x="246" y="673" type="line"/>
      <point x="254" y="669"/>
      <point x="264" y="667"/>
      <point x="274" y="667" type="curve" smooth="yes"/>
      <point x="307" y="667"/>
      <point x="332" y="693"/>
      <point x="332" y="725" type="curve" smooth="yes"/>
      <point x="332" y="757"/>
      <point x="306" y="782"/>
      <point x="274" y="782" type="curve" smooth="yes"/>
      <point x="242" y="782"/>
      <point x="216" y="757"/>
      <point x="216" y="725" type="curve" smooth="yes"/>
      <point x="216" y="714"/>
      <point x="219" y="704"/>
      <point x="224" y="696" type="curve"/>
      <point x="200" y="672" type="line"/>
    </contour>
    <contour>
      <point x="160" y="650" type="line"/>
      <point x="182" y="672" type="line"/>
      <point x="158" y="696" type="line"/>
      <point x="163" y="704"/>
      <point x="166" y="714"/>
      <point x="166" y="725" type="curve" smooth="yes"/>
      <point x="166" y="757"/>
      <point x="140" y="782"/>
      <point x="108" y="782" type="curve" smooth="yes"/>
      <point x="76" y="782"/>
      <point x="50" y="757"/>
      <point x="50" y="725" type="curve" smooth="yes"/>
      <point x="50" y="693"/>
      <point x="75" y="667"/>
      <point x="108" y="667" type="curve" smooth="yes"/>
      <point x="118" y="667"/>
      <point x="128" y="669"/>
      <point x="136" y="673" type="curve"/>
    </contour>
    <contour>
      <point x="109" y="692" type="curve" smooth="yes"/>
      <point x="90" y="692"/>
      <point x="75" y="707"/>
      <point x="75" y="725" type="curve" smooth="yes"/>
      <point x="75" y="742"/>
      <point x="91" y="758"/>
      <point x="109" y="758" type="curve" smooth="yes"/>
      <point x="126" y="758"/>
      <point x="141" y="743"/>
      <point x="141" y="725" type="curve" smooth="yes"/>
      <point x="141" y="706"/>
      <point x="126" y="692"/>
    </contour>
    <contour>
      <point x="273" y="692" type="curve" smooth="yes"/>
      <point x="256" y="692"/>
      <point x="241" y="706"/>
      <point x="241" y="725" type="curve" smooth="yes"/>
      <point x="241" y="743"/>
      <point x="256" y="758"/>
      <point x="273" y="758" type="curve" smooth="yes"/>
      <point x="291" y="758"/>
      <point x="307" y="742"/>
      <point x="307" y="725" type="curve" smooth="yes"/>
      <point x="307" y="707"/>
      <point x="292" y="692"/>
    </contour>
  </outline>
</glyph>
<glyph name="telishagedola-hb" format="2">
  <unicode hex="05A0"/>
  <note>
uni05A0
</note>
  <anchor x="116" y="528" name="_top"/>
  <outline>
    <contour>
      <point x="72" y="650" type="line"/>
      <point x="96" y="673" type="line"/>
      <point x="104" y="669"/>
      <point x="114" y="667"/>
      <point x="124" y="667" type="curve" smooth="yes"/>
      <point x="157" y="667"/>
      <point x="182" y="693"/>
      <point x="182" y="725" type="curve" smooth="yes"/>
      <point x="182" y="757"/>
      <point x="156" y="782"/>
      <point x="124" y="782" type="curve" smooth="yes"/>
      <point x="92" y="782"/>
      <point x="66" y="757"/>
      <point x="66" y="725" type="curve" smooth="yes"/>
      <point x="66" y="714"/>
      <point x="69" y="704"/>
      <point x="74" y="696" type="curve"/>
      <point x="50" y="672" type="line"/>
    </contour>
    <contour>
      <point x="123" y="692" type="curve" smooth="yes"/>
      <point x="106" y="692"/>
      <point x="91" y="706"/>
      <point x="91" y="725" type="curve" smooth="yes"/>
      <point x="91" y="743"/>
      <point x="106" y="758"/>
      <point x="123" y="758" type="curve" smooth="yes"/>
      <point x="141" y="758"/>
      <point x="157" y="742"/>
      <point x="157" y="725" type="curve" smooth="yes"/>
      <point x="157" y="707"/>
      <point x="142" y="692"/>
    </contour>
  </outline>
</glyph>
<glyph name="pazer-hb" format="2">
  <unicode hex="05A1"/>
  <note>
uni05A1
</note>
  <anchor x="107" y="528" name="_top"/>
  <outline>
    <contour>
      <point x="50" y="620" type="line"/>
      <point x="75" y="620" type="line"/>
      <point x="75" y="653" type="line"/>
      <point x="83" y="649"/>
      <point x="94" y="646"/>
      <point x="106" y="646" type="curve" smooth="yes"/>
      <point x="145" y="647"/>
      <point x="163" y="665"/>
      <point x="163" y="708" type="curve" smooth="yes"/>
      <point x="163" y="734" type="line"/>
      <point x="138" y="734" type="line"/>
      <point x="138" y="708" type="line" smooth="yes"/>
      <point x="138" y="681"/>
      <point x="129" y="670"/>
      <point x="107" y="670" type="curve" smooth="yes"/>
      <point x="84" y="670"/>
      <point x="75" y="681"/>
      <point x="75" y="708" type="curve" smooth="yes"/>
      <point x="75" y="734" type="line"/>
      <point x="50" y="734" type="line"/>
    </contour>
  </outline>
</glyph>
<glyph name="mahapakhleft-hb" format="2">
  <unicode hex="05A4"/>
  <note>
uni05A4
</note>
  <anchor x="102" y="0" name="_bottomleft"/>
  <outline>
    <contour>
      <point x="125" y="-229" type="line"/>
      <point x="154" y="-229" type="line"/>
      <point x="80" y="-154" type="line"/>
      <point x="151" y="-82" type="line"/>
      <point x="121" y="-82" type="line"/>
      <point x="50" y="-153" type="line"/>
    </contour>
  </outline>
</glyph>
<glyph name="merkhaleft-hb" format="2">
  <unicode hex="05A5"/>
  <note>
uni05A5
</note>
  <anchor x="159" y="0" name="_bottomleft"/>
  <outline>
    <contour>
      <point x="50" y="-188" type="line"/>
      <point x="126" y="-188"/>
      <point x="159" y="-149"/>
      <point x="159" y="-82" type="curve"/>
      <point x="130" y="-82" type="line"/>
      <point x="130" y="-131"/>
      <point x="110" y="-159"/>
      <point x="50" y="-159" type="curve"/>
    </contour>
  </outline>
</glyph>
<glyph name="merkhakefulaleft-hb" format="2">
  <unicode hex="05A6"/>
  <note>
uni05A6
</note>
  <anchor x="199" y="0" name="_bottomleft"/>
  <outline>
    <contour>
      <point x="159" y="-222" type="line"/>
      <point x="235" y="-222"/>
      <point x="268" y="-183"/>
      <point x="268" y="-116" type="curve"/>
      <point x="239" y="-116" type="line"/>
      <point x="239" y="-165"/>
      <point x="219" y="-193"/>
      <point x="159" y="-193" type="curve"/>
    </contour>
    <contour>
      <point x="50" y="-222" type="line"/>
      <point x="126" y="-222"/>
      <point x="159" y="-183"/>
      <point x="159" y="-116" type="curve"/>
      <point x="130" y="-116" type="line"/>
      <point x="130" y="-165"/>
      <point x="110" y="-193"/>
      <point x="50" y="-193" type="curve"/>
    </contour>
  </outline>
</glyph>
<glyph name="dargaleft-hb" format="2">
  <unicode hex="05A7"/>
  <note>
uni05A7
</note>
  <anchor x="157" y="0" name="_bottomleft"/>
  <outline>
    <contour>
      <point x="53" y="-219" type="line"/>
      <point x="165" y="-200" type="line"/>
      <point x="88" y="-102" type="line"/>
      <point x="157" y="-89" type="line"/>
      <point x="157" y="-66" type="line"/>
      <point x="50" y="-87" type="line"/>
      <point x="129" y="-187" type="line"/>
      <point x="53" y="-200" type="line"/>
    </contour>
  </outline>
</glyph>
<glyph name="telishaqetana-hb" format="2">
  <unicode hex="05A9"/>
  <note>
uni05A9
</note>
  <anchor x="116" y="528" name="_topleft"/>
  <outline>
    <contour>
      <point x="160" y="650" type="line"/>
      <point x="182" y="672" type="line"/>
      <point x="158" y="696" type="line"/>
      <point x="163" y="704"/>
      <point x="166" y="714"/>
      <point x="166" y="725" type="curve" smooth="yes"/>
      <point x="166" y="757"/>
      <point x="140" y="782"/>
      <point x="108" y="782" type="curve" smooth="yes"/>
      <point x="76" y="782"/>
      <point x="50" y="757"/>
      <point x="50" y="725" type="curve" smooth="yes"/>
      <point x="50" y="693"/>
      <point x="75" y="667"/>
      <point x="108" y="667" type="curve" smooth="yes"/>
      <point x="118" y="667"/>
      <point x="128" y="669"/>
      <point x="136" y="673" type="curve"/>
    </contour>
    <contour>
      <point x="109" y="692" type="curve" smooth="yes"/>
      <point x="90" y="692"/>
      <point x="75" y="707"/>
      <point x="75" y="725" type="curve" smooth="yes"/>
      <point x="75" y="742"/>
      <point x="91" y="758"/>
      <point x="109" y="758" type="curve" smooth="yes"/>
      <point x="126" y="758"/>
      <point x="141" y="743"/>
      <point x="141" y="725" type="curve" smooth="yes"/>
      <point x="141" y="706"/>
      <point x="126" y="692"/>
    </contour>
  </outline>
</glyph>
<glyph name="yerahbenyomoleft-hb" format="2">
  <unicode hex="05AA"/>
  <note>
uni05AA
</note>
  <anchor x="107" y="0" name="_bottomleft"/>
  <outline>
    <contour>
      <point x="93" y="-202" type="line"/>
      <point x="119" y="-202" type="line"/>
      <point x="119" y="-160" type="line"/>
      <point x="149" y="-155"/>
      <point x="163" y="-137"/>
      <point x="163" y="-99" type="curve" smooth="yes"/>
      <point x="163" y="-82" type="line"/>
      <point x="138" y="-82" type="line"/>
      <point x="138" y="-99" type="line" smooth="yes"/>
      <point x="138" y="-126"/>
      <point x="129" y="-137"/>
      <point x="107" y="-137" type="curve" smooth="yes"/>
      <point x="84" y="-137"/>
      <point x="75" y="-126"/>
      <point x="75" y="-99" type="curve" smooth="yes"/>
      <point x="75" y="-82" type="line"/>
      <point x="50" y="-82" type="line"/>
      <point x="50" y="-99" type="line" smooth="yes"/>
      <point x="50" y="-137"/>
      <point x="64" y="-155"/>
      <point x="93" y="-160" type="curve"/>
    </contour>
  </outline>
</glyph>
<glyph name="iluy-hb" format="2">
  <unicode hex="05AC"/>
  <note>
uni05AC
</note>
  <anchor x="116" y="528" name="_top"/>
  <outline>
    <contour>
      <point x="50" y="650" type="line"/>
      <point x="182" y="650" type="line"/>
      <point x="182" y="777" type="line"/>
      <point x="156" y="777" type="line"/>
      <point x="156" y="676" type="line"/>
      <point x="50" y="676" type="line"/>
    </contour>
  </outline>
</glyph>
<glyph name="dehi-hb" format="2">
  <unicode hex="05AD"/>
  <note>
uni05AD
</note>
  <anchor x="65" y="0" name="_bottomleft"/>
  <outline>
    <contour>
      <point x="159" y="-188" type="curve"/>
      <point x="159" y="-159" type="line"/>
      <point x="99" y="-159"/>
      <point x="79" y="-131"/>
      <point x="79" y="-82" type="curve"/>
      <point x="50" y="-82" type="line"/>
      <point x="50" y="-149"/>
      <point x="83" y="-188"/>
    </contour>
  </outline>
</glyph>
<glyph name="zinor-hb" format="2">
  <unicode hex="05AE"/>
  <note>
uni05AE
</note>
  <anchor x="135" y="528" name="_top"/>
  <outline>
    <contour>
      <point x="81" y="650" type="curve"/>
      <point x="89" y="670" type="line"/>
      <point x="78" y="675"/>
      <point x="72" y="683"/>
      <point x="72" y="695" type="curve" smooth="yes"/>
      <point x="72" y="709"/>
      <point x="80" y="717"/>
      <point x="91" y="717" type="curve" smooth="yes"/>
      <point x="104" y="717"/>
      <point x="110" y="710"/>
      <point x="127" y="686" type="curve" smooth="yes"/>
      <point x="147" y="659"/>
      <point x="160" y="651"/>
      <point x="179" y="651" type="curve" smooth="yes"/>
      <point x="203" y="651"/>
      <point x="220" y="667"/>
      <point x="220" y="693" type="curve" smooth="yes"/>
      <point x="220" y="715"/>
      <point x="210" y="730"/>
      <point x="189" y="738" type="curve"/>
      <point x="181" y="717" type="line"/>
      <point x="192" y="712"/>
      <point x="198" y="705"/>
      <point x="198" y="693" type="curve" smooth="yes"/>
      <point x="198" y="678"/>
      <point x="190" y="671"/>
      <point x="179" y="671" type="curve" smooth="yes"/>
      <point x="167" y="671"/>
      <point x="158" y="679"/>
      <point x="143" y="701" type="curve" smooth="yes"/>
      <point x="123" y="728"/>
      <point x="110" y="737"/>
      <point x="92" y="737" type="curve" smooth="yes"/>
      <point x="67" y="737"/>
      <point x="50" y="720"/>
      <point x="50" y="695" type="curve" smooth="yes"/>
      <point x="50" y="672"/>
      <point x="60" y="657"/>
    </contour>
  </outline>
</glyph>
<glyph name="hatafpatah-hb" format="2">
  <unicode hex="05B2"/>
  <note>
hatafpatah
</note>
  <anchor x="143" y="0" name="_bottom"/>
  <outline>
    <contour>
      <point x="60" y="-107" type="line"/>
      <point x="186" y="-107" type="line"/>
      <point x="186" y="-82" type="line"/>
      <point x="60" y="-82" type="line"/>
    </contour>
    <contour>
      <point x="244" y="-116" type="curve" smooth="yes"/>
      <point x="256" y="-116"/>
      <point x="266" y="-106"/>
      <point x="266" y="-93" type="curve" smooth="yes"/>
      <point x="266" y="-81"/>
      <point x="256" y="-71"/>
      <point x="244" y="-71" type="curve" smooth="yes"/>
      <point x="231" y="-71"/>
      <point x="221" y="-81"/>
      <point x="221" y="-93" type="curve" smooth="yes"/>
      <point x="221" y="-106"/>
      <point x="231" y="-116"/>
    </contour>
    <contour>
      <point x="244" y="-206" type="curve" smooth="yes"/>
      <point x="256" y="-206"/>
      <point x="266" y="-196"/>
      <point x="266" y="-183" type="curve" smooth="yes"/>
      <point x="266" y="-171"/>
      <point x="256" y="-161"/>
      <point x="244" y="-161" type="curve" smooth="yes"/>
      <point x="231" y="-161"/>
      <point x="221" y="-171"/>
      <point x="221" y="-183" type="curve" smooth="yes"/>
      <point x="221" y="-196"/>
      <point x="231" y="-206"/>
    </contour>
  </outline>
</glyph>
<glyph name="hatafqamats-hb" format="2">
  <unicode hex="05B3"/>
  <note>
hatafqamats
</note>
  <anchor x="138" y="0" name="_bottom"/>
  <outline>
    <contour>
      <point x="81" y="-196" type="line"/>
      <point x="106" y="-196" type="line"/>
      <point x="106" y="-106" type="line"/>
      <point x="158" y="-106" type="line"/>
      <point x="158" y="-81" type="line"/>
      <point x="30" y="-81" type="line"/>
      <point x="30" y="-106" type="line"/>
      <point x="81" y="-106" type="line"/>
    </contour>
    <contour>
      <point x="215" y="-116" type="curve" smooth="yes"/>
      <point x="227" y="-116"/>
      <point x="237" y="-106"/>
      <point x="237" y="-93" type="curve" smooth="yes"/>
      <point x="237" y="-81"/>
      <point x="227" y="-71"/>
      <point x="215" y="-71" type="curve" smooth="yes"/>
      <point x="202" y="-71"/>
      <point x="192" y="-81"/>
      <point x="192" y="-93" type="curve" smooth="yes"/>
      <point x="192" y="-106"/>
      <point x="202" y="-116"/>
    </contour>
    <contour>
      <point x="215" y="-206" type="curve" smooth="yes"/>
      <point x="227" y="-206"/>
      <point x="237" y="-196"/>
      <point x="237" y="-183" type="curve" smooth="yes"/>
      <point x="237" y="-171"/>
      <point x="227" y="-161"/>
      <point x="215" y="-161" type="curve" smooth="yes"/>
      <point x="202" y="-161"/>
      <point x="192" y="-171"/>
      <point x="192" y="-183" type="curve" smooth="yes"/>
      <point x="192" y="-196"/>
      <point x="202" y="-206"/>
    </contour>
  </outline>
</glyph>
<glyph name="segol-hb" format="2">
  <unicode hex="05B6"/>
  <note>
segol
</note>
  <anchor x="110" y="0" name="_bottom"/>
  <outline>
    <contour>
      <point x="82" y="-116" type="curve" smooth="yes"/>
      <point x="94" y="-116"/>
      <point x="104" y="-106"/>
      <point x="104" y="-93" type="curve" smooth="yes"/>
      <point x="104" y="-81"/>
      <point x="94" y="-71"/>
      <point x="82" y="-71" type="curve" smooth="yes"/>
      <point x="69" y="-71"/>
      <point x="59" y="-81"/>
      <point x="59" y="-93" type="curve" smooth="yes"/>
      <point x="59" y="-106"/>
      <point x="69" y="-116"/>
    </contour>
    <contour>
      <point x="158" y="-116" type="curve" smooth="yes"/>
      <point x="170" y="-116"/>
      <point x="180" y="-106"/>
      <point x="180" y="-93" type="curve" smooth="yes"/>
      <point x="180" y="-81"/>
      <point x="170" y="-71"/>
      <point x="158" y="-71" type="curve" smooth="yes"/>
      <point x="145" y="-71"/>
      <point x="135" y="-81"/>
      <point x="135" y="-93" type="curve" smooth="yes"/>
      <point x="135" y="-106"/>
      <point x="145" y="-116"/>
    </contour>
    <contour>
      <point x="119" y="-206" type="curve" smooth="yes"/>
      <point x="131" y="-206"/>
      <point x="141" y="-196"/>
      <point x="141" y="-183" type="curve" smooth="yes"/>
      <point x="141" y="-171"/>
      <point x="131" y="-161"/>
      <point x="119" y="-161" type="curve" smooth="yes"/>
      <point x="106" y="-161"/>
      <point x="96" y="-171"/>
      <point x="96" y="-183" type="curve" smooth="yes"/>
      <point x="96" y="-196"/>
      <point x="106" y="-206"/>
    </contour>
  </outline>
</glyph>
<glyph name="qamats-hb" format="2">
  <unicode hex="05B8"/>
  <note>
qamats
</note>
  <anchor x="105" y="0" name="_bottom"/>
  <outline>
    <contour>
      <point x="92" y="-198" type="line"/>
      <point x="117" y="-198" type="line"/>
      <point x="117" y="-107" type="line"/>
      <point x="159" y="-107" type="line"/>
      <point x="159" y="-82" type="line"/>
      <point x="50" y="-82" type="line"/>
      <point x="50" y="-107" type="line"/>
      <point x="92" y="-107" type="line"/>
    </contour>
  </outline>
</glyph>
<glyph name="holamhaser-hb" format="2">
  <unicode hex="05BA"/>
  <note>
uni05BA
</note>
  <anchor x="72" y="528" name="_topleft"/>
  <outline>
    <contour>
      <point x="72" y="656" type="curve" smooth="yes"/>
      <point x="84" y="656"/>
      <point x="94" y="666"/>
      <point x="94" y="679" type="curve" smooth="yes"/>
      <point x="94" y="691"/>
      <point x="84" y="701"/>
      <point x="72" y="701" type="curve" smooth="yes"/>
      <point x="59" y="701"/>
      <point x="49" y="691"/>
      <point x="49" y="679" type="curve" smooth="yes"/>
      <point x="49" y="666"/>
      <point x="59" y="656"/>
    </contour>
  </outline>
</glyph>
<glyph name="qubuts-hb" format="2">
  <unicode hex="05BB"/>
  <note>
qubuts
</note>
  <anchor x="125" y="0" name="_bottom"/>
  <outline>
    <contour>
      <point x="72" y="-116" type="curve" smooth="yes"/>
      <point x="84" y="-116"/>
      <point x="94" y="-106"/>
      <point x="94" y="-93" type="curve" smooth="yes"/>
      <point x="94" y="-81"/>
      <point x="84" y="-71"/>
      <point x="72" y="-71" type="curve" smooth="yes"/>
      <point x="59" y="-71"/>
      <point x="49" y="-81"/>
      <point x="49" y="-93" type="curve" smooth="yes"/>
      <point x="49" y="-106"/>
      <point x="59" y="-116"/>
    </contour>
    <contour>
      <point x="130" y="-162" type="curve" smooth="yes"/>
      <point x="142" y="-162"/>
      <point x="152" y="-152"/>
      <point x="152" y="-139" type="curve" smooth="yes"/>
      <point x="152" y="-127"/>
      <point x="142" y="-117"/>
      <point x="130" y="-117" type="curve" smooth="yes"/>
      <point x="117" y="-117"/>
      <point x="107" y="-127"/>
      <point x="107" y="-139" type="curve" smooth="yes"/>
      <point x="107" y="-152"/>
      <point x="117" y="-162"/>
    </contour>
    <contour>
      <point x="188" y="-206" type="curve" smooth="yes"/>
      <point x="200" y="-206"/>
      <point x="210" y="-196"/>
      <point x="210" y="-183" type="curve" smooth="yes"/>
      <point x="210" y="-171"/>
      <point x="200" y="-161"/>
      <point x="188" y="-161" type="curve" smooth="yes"/>
      <point x="175" y="-161"/>
      <point x="165" y="-171"/>
      <point x="165" y="-183" type="curve" smooth="yes"/>
      <point x="165" y="-196"/>
      <point x="175" y="-206"/>
    </contour>
  </outline>
</glyph>
<glyph name="maqaf-hb" format="2">
  <advance width="273"/>
  <unicode hex="05BE"/>
  <outline>
    <contour>
      <point x="36" y="557" type="line"/>
      <point x="237" y="557" type="line"/>
      <point x="237" y="584" type="line"/>
      <point x="36" y="584" type="line"/>
    </contour>
  </outline>
</glyph>
<glyph name="rafe-hb" format="2">
  <unicode hex="05BF"/>
  <note>
rafe
</note>
  <anchor x="112" y="528" name="_top"/>
  <outline>
    <contour>
      <point x="50" y="667" type="line"/>
      <point x="174" y="667" type="line"/>
      <point x="174" y="692" type="line"/>
      <point x="50" y="692" type="line"/>
    </contour>
  </outline>
</glyph>
<glyph name="paseq-hb" format="2">
  <advance width="378"/>
  <unicode hex="05C0"/>
  <note>
paseq
</note>
  <outline>
    <contour>
      <point x="176" y="761" type="line"/>
      <point x="176" y="-242" type="line"/>
      <point x="202" y="-242" type="line"/>
      <point x="202" y="761" type="line"/>
    </contour>
  </outline>
</glyph>
<glyph name="shindot-hb" format="2">
  <unicode hex="05C1"/>
  <note>
shindot
</note>
  <anchor x="72" y="528" name="_topright"/>
  <outline>
    <contour>
      <point x="73" y="655" type="curve" smooth="yes"/>
      <point x="85" y="655"/>
      <point x="95" y="665"/>
      <point x="95" y="678" type="curve" smooth="yes"/>
      <point x="95" y="690"/>
      <point x="85" y="700"/>
      <point x="73" y="700" type="curve" smooth="yes"/>
      <point x="60" y="700"/>
      <point x="50" y="690"/>
      <point x="50" y="678" type="curve" smooth="yes"/>
      <point x="50" y="665"/>
      <point x="60" y="655"/>
    </contour>
  </outline>
</glyph>
<glyph name="sofpasuq-hb" format="2">
  <advance width="180"/>
  <unicode hex="05C3"/>
  <note>
sofpasuq
</note>
  <outline>
    <contour>
      <point x="65" y="31" type="curve" smooth="yes"/>
      <point x="65" y="12"/>
      <point x="67" y="-5"/>
      <point x="90" y="-5" type="curve" smooth="yes"/>
      <point x="112" y="-5"/>
      <point x="116" y="11"/>
      <point x="116" y="31" type="curve" smooth="yes"/>
      <point x="116" y="50"/>
      <point x="112" y="66"/>
      <point x="90" y="66" type="curve" smooth="yes"/>
      <point x="69" y="66"/>
      <point x="65" y="50"/>
    </contour>
    <contour>
      <point x="65" y="496" type="curve" smooth="yes"/>
      <point x="65" y="476"/>
      <point x="70" y="461"/>
      <point x="90" y="461" type="curve" smooth="yes"/>
      <point x="108" y="461"/>
      <point x="116" y="474"/>
      <point x="116" y="497" type="curve" smooth="yes"/>
      <point x="116" y="521"/>
      <point x="109" y="532"/>
      <point x="91" y="532" type="curve" smooth="yes"/>
      <point x="70" y="532"/>
      <point x="65" y="516"/>
    </contour>
  </outline>
</glyph>
<glyph name="lowerdot-hb" format="2">
  <unicode hex="05C5"/>
  <note>
lowerdot
</note>
  <anchor x="72" y="0" name="_bottom"/>
  <outline>
    <contour>
      <point x="72" y="-117" type="curve" smooth="yes"/>
      <point x="84" y="-117"/>
      <point x="94" y="-107"/>
      <point x="94" y="-94" type="curve" smooth="yes"/>
      <point x="94" y="-82"/>
      <point x="84" y="-72"/>
      <point x="72" y="-72" type="curve" smooth="yes"/>
      <point x="59" y="-72"/>
      <point x="49" y="-82"/>
      <point x="49" y="-94" type="curve" smooth="yes"/>
      <point x="49" y="-107"/>
      <point x="59" y="-117"/>
    </contour>
  </outline>
</glyph>
<glyph name="nunhafukha-hb" format="2">
  <advance width="245"/>
  <unicode hex="05C6"/>
  <note>
uni05C6
</note>
  <outline>
    <contour>
      <point x="70" y="0" type="line"/>
      <point x="210" y="0" type="line"/>
      <point x="210" y="29" type="line"/>
      <point x="96" y="29" type="line"/>
      <point x="96" y="479" type="line"/>
      <point x="96" y="537"/>
      <point x="109" y="557"/>
      <point x="152" y="557" type="curve" smooth="yes"/>
      <point x="184" y="557" type="line"/>
      <point x="184" y="584" type="line"/>
      <point x="147" y="584" type="line" smooth="yes"/>
      <point x="93" y="584"/>
      <point x="70" y="553"/>
      <point x="70" y="487" type="curve" smooth="yes"/>
    </contour>
  </outline>
</glyph>
<glyph name="qamatsqatan-hb" format="2">
  <unicode hex="05C7"/>
  <note>
qamatsqatan
</note>
  <anchor x="97" y="0" name="_bottom"/>
  <outline>
    <contour>
      <point x="83" y="-161" type="line"/>
      <point x="108" y="-161" type="line"/>
      <point x="108" y="-107" type="line"/>
      <point x="141" y="-107" type="line"/>
      <point x="141" y="-82" type="line"/>
      <point x="50" y="-82" type="line"/>
      <point x="50" y="-107" type="line"/>
      <point x="83" y="-107" type="line"/>
    </contour>
  </outline>
</glyph>
<glyph name="alef-hb" format="2">
  <advance width="411"/>
  <unicode hex="05D0"/>
  <anchor x="200" y="0" name="bottom"/>
  <anchor x="147" y="0" name="bottomleft"/>
  <anchor x="176" y="127" name="center"/>
  <anchor x="221" y="528" name="top"/>
  <anchor x="92" y="528" name="topleft"/>
  <outline>
    <contour>
      <point x="345" y="0" type="curve"/>
      <point x="377" y="0" type="line"/>
      <point x="313" y="148"/>
      <point x="240" y="316"/>
      <point x="185" y="415" type="curve" smooth="yes"/>
      <point x="130" y="514"/>
      <point x="114" y="542"/>
      <point x="87" y="584" type="curve"/>
      <point x="53" y="584" type="line"/>
      <point x="79" y="543"/>
      <point x="102" y="512"/>
      <point x="155" y="411" type="curve" smooth="yes"/>
      <point x="207" y="312"/>
      <point x="281" y="149"/>
    </contour>
    <contour>
      <point x="34" y="0" type="line"/>
      <point x="66" y="0" type="line"/>
      <point x="83" y="184" type="line" smooth="yes"/>
      <point x="94" y="304"/>
      <point x="111" y="350"/>
      <point x="170" y="393" type="curve"/>
      <point x="151" y="416" type="line"/>
      <point x="86" y="368"/>
      <point x="63" y="311"/>
      <point x="51" y="181" type="curve" smooth="yes"/>
    </contour>
    <contour>
      <point x="260" y="251" type="line"/>
      <point x="313" y="275"/>
      <point x="348" y="375"/>
      <point x="356" y="450" type="curve" smooth="yes"/>
      <point x="371" y="584" type="line"/>
      <point x="339" y="584" type="line"/>
      <point x="323" y="447" type="line" smooth="yes"/>
      <point x="316" y="385"/>
      <point x="289" y="293"/>
      <point x="242" y="274" type="curve"/>
    </contour>
  </outline>
</glyph>
<glyph name="bet-hb" format="2">
  <advance width="337"/>
  <unicode hex="05D1"/>
  <anchor x="145" y="0" name="bottom"/>
  <anchor x="25" y="0" name="bottomleft"/>
  <anchor x="105" y="296" name="center"/>
  <anchor x="124" y="528" name="top"/>
  <anchor x="25" y="528" name="topleft"/>
  <outline>
    <contour>
      <point x="226" y="0" type="line"/>
      <point x="248" y="0" type="line"/>
      <point x="255" y="6"/>
      <point x="258" y="9"/>
      <point x="258" y="17" type="curve"/>
      <point x="258" y="419" type="line" smooth="yes"/>
      <point x="258" y="527"/>
      <point x="221" y="584"/>
      <point x="115" y="584" type="curve" smooth="yes"/>
      <point x="29" y="584" type="line"/>
      <point x="24" y="557" type="line"/>
      <point x="110" y="557" type="line" smooth="yes"/>
      <point x="203" y="557"/>
      <point x="226" y="511"/>
      <point x="226" y="416" type="curve" smooth="yes"/>
    </contour>
    <contour>
      <point x="24" y="0" type="line"/>
      <point x="308" y="0" type="line"/>
      <point x="313" y="27" type="line"/>
      <point x="24" y="27" type="line"/>
    </contour>
  </outline>
</glyph>
<glyph name="gimel-hb" format="2">
  <advance width="261"/>
  <unicode hex="05D2"/>
  <anchor x="150" y="0" name="bottom"/>
  <anchor x="31" y="0" name="bottomleft"/>
  <anchor x="72" y="296" name="center"/>
  <anchor x="132" y="528" name="top"/>
  <anchor x="70" y="528" name="topleft"/>
  <outline>
    <contour>
      <point x="208" y="-5" type="line"/>
      <point x="237" y="7" type="line"/>
      <point x="196" y="144" type="line"/>
      <point x="196" y="479" type="line" smooth="yes"/>
      <point x="196" y="548"/>
      <point x="168" y="584"/>
      <point x="104" y="584" type="curve" smooth="yes"/>
      <point x="75" y="584" type="line"/>
      <point x="70" y="557" type="line"/>
      <point x="99" y="557" type="line" smooth="yes"/>
      <point x="149" y="557"/>
      <point x="164" y="529"/>
      <point x="164" y="476" type="curve" smooth="yes"/>
      <point x="164" y="168" type="line"/>
      <point x="147" y="130"/>
      <point x="97" y="27"/>
      <point x="30" y="27" type="curve" smooth="yes"/>
      <point x="19" y="27" type="line"/>
      <point x="19" y="0" type="line"/>
      <point x="30" y="0" type="line" smooth="yes"/>
      <point x="115" y="0"/>
      <point x="157" y="101"/>
      <point x="168" y="119" type="curve"/>
      <point x="171" y="119" type="line"/>
    </contour>
  </outline>
</glyph>
<glyph name="dalet-hb" format="2">
  <advance width="341"/>
  <unicode hex="05D3"/>
  <anchor x="235" y="0" name="bottom"/>
  <anchor x="80" y="0" name="bottomleft"/>
  <anchor x="112" y="296" name="center"/>
  <anchor x="171" y="528" name="top"/>
  <anchor x="22" y="528" name="topleft"/>
  <outline>
    <contour>
      <point x="24" y="557" type="line"/>
      <point x="312" y="557" type="line"/>
      <point x="317" y="584" type="line"/>
      <point x="24" y="584" type="line"/>
    </contour>
    <contour>
      <point x="220" y="0" type="line"/>
      <point x="252" y="0" type="line"/>
      <point x="252" y="509" type="line"/>
      <point x="252" y="528"/>
      <point x="254" y="548"/>
      <point x="257" y="557" type="curve"/>
      <point x="233" y="557" type="line"/>
      <point x="224" y="550"/>
      <point x="220" y="528"/>
      <point x="220" y="509" type="curve"/>
    </contour>
  </outline>
</glyph>
<glyph name="he-hb" format="2">
  <advance width="434"/>
  <unicode hex="05D4"/>
  <anchor x="221" y="0" name="bottom"/>
  <anchor x="53" y="0" name="bottomleft"/>
  <anchor x="211" y="296" name="center"/>
  <anchor x="204" y="528" name="top"/>
  <anchor x="51" y="528" name="topleft"/>
  <outline>
    <contour>
      <point x="333" y="0" type="line"/>
      <point x="365" y="0" type="line"/>
      <point x="365" y="419" type="line" smooth="yes"/>
      <point x="365" y="527"/>
      <point x="328" y="584"/>
      <point x="222" y="584" type="curve" smooth="yes"/>
      <point x="64" y="584" type="line"/>
      <point x="59" y="557" type="line"/>
      <point x="217" y="557" type="line" smooth="yes"/>
      <point x="310" y="557"/>
      <point x="333" y="511"/>
      <point x="333" y="416" type="curve" smooth="yes"/>
    </contour>
    <contour>
      <point x="68" y="0" type="line"/>
      <point x="100" y="0" type="line"/>
      <point x="100" y="395" type="line"/>
      <point x="68" y="390" type="line"/>
    </contour>
  </outline>
</glyph>
<glyph name="vav-hb" format="2">
  <advance width="210"/>
  <unicode hex="05D5"/>
  <anchor x="127" y="0" name="bottom"/>
  <anchor x="55" y="0" name="bottomleft"/>
  <anchor x="35" y="296" name="center"/>
  <anchor x="127" y="528" name="top"/>
  <anchor x="127" y="528" name="topleft"/>
  <outline>
    <contour>
      <point x="109" y="0" type="line"/>
      <point x="141" y="0" type="line"/>
      <point x="141" y="584" type="line"/>
      <point x="109" y="584" type="line"/>
    </contour>
    <contour>
      <point x="39" y="557" type="line"/>
      <point x="129" y="557" type="line"/>
      <point x="129" y="584" type="line"/>
      <point x="44" y="584" type="line"/>
    </contour>
  </outline>
</glyph>
<glyph name="zayin-hb" format="2">
  <advance width="206"/>
  <unicode hex="05D6"/>
  <anchor x="101" y="0" name="bottom"/>
  <anchor x="33" y="0" name="bottomleft"/>
  <anchor x="19" y="296" name="center"/>
  <anchor x="117" y="528" name="top"/>
  <anchor x="54" y="528" name="topleft"/>
  <outline>
    <contour>
      <point x="88" y="0" type="curve"/>
      <point x="120" y="0" type="line"/>
      <point x="108" y="135"/>
      <point x="90" y="324"/>
      <point x="93" y="395" type="curve" smooth="yes"/>
      <point x="96" y="466"/>
      <point x="117" y="528"/>
      <point x="177" y="557" type="curve"/>
      <point x="132" y="557" type="line"/>
      <point x="96" y="527"/>
      <point x="64" y="475"/>
      <point x="61" y="395" type="curve" smooth="yes"/>
      <point x="58" y="324"/>
      <point x="76" y="131"/>
    </contour>
    <contour>
      <point x="29" y="557" type="line"/>
      <point x="177" y="557" type="line"/>
      <point x="182" y="584" type="line"/>
      <point x="29" y="584" type="line"/>
    </contour>
  </outline>
</glyph>
<glyph name="het-hb" format="2">
  <advance width="435"/>
  <unicode hex="05D7"/>
  <anchor x="217" y="0" name="bottom"/>
  <anchor x="62" y="0" name="bottomleft"/>
  <anchor x="217" y="296" name="center"/>
  <anchor x="217" y="528" name="top"/>
  <anchor x="62" y="528" name="topleft"/>
  <outline>
    <contour>
      <point x="233" y="584" type="curve" smooth="yes"/>
      <point x="73" y="584" type="line"/>
      <point x="73" y="557" type="line"/>
      <point x="105" y="557" type="line"/>
      <point x="90" y="543"/>
      <point x="73" y="488"/>
      <point x="73" y="421" type="curve"/>
      <point x="73" y="0" type="line"/>
      <point x="105" y="0" type="line"/>
      <point x="105" y="421" type="line"/>
      <point x="105" y="503"/>
      <point x="123" y="543"/>
      <point x="131" y="557" type="curve"/>
      <point x="228" y="557" type="line" smooth="yes"/>
      <point x="321" y="557"/>
      <point x="344" y="511"/>
      <point x="344" y="416" type="curve" smooth="yes"/>
      <point x="344" y="0" type="line"/>
      <point x="376" y="0" type="line"/>
      <point x="376" y="419" type="line" smooth="yes"/>
      <point x="376" y="527"/>
      <point x="339" y="584"/>
    </contour>
    <contour>
      <point x="39" y="557" type="line"/>
      <point x="173" y="557" type="line"/>
      <point x="173" y="584" type="line"/>
      <point x="44" y="584" type="line"/>
    </contour>
  </outline>
</glyph>
<glyph name="tet-hb" format="2">
  <advance width="415"/>
  <unicode hex="05D8"/>
  <anchor x="205" y="0" name="bottom"/>
  <anchor x="46" y="0" name="bottomleft"/>
  <anchor x="205" y="296" name="center"/>
  <anchor x="205" y="528" name="top"/>
  <anchor x="36" y="528" name="topleft"/>
  <outline>
    <contour>
      <point x="209" y="-10" type="curve" smooth="yes"/>
      <point x="315" y="-10"/>
      <point x="371" y="103"/>
      <point x="371" y="320" type="curve" smooth="yes"/>
      <point x="371" y="493"/>
      <point x="343" y="587"/>
      <point x="248" y="587" type="curve" smooth="yes"/>
      <point x="230" y="587"/>
      <point x="208" y="583"/>
      <point x="190" y="577" type="curve"/>
      <point x="190" y="550" type="line"/>
      <point x="207" y="556"/>
      <point x="227" y="560"/>
      <point x="244" y="560" type="curve" smooth="yes"/>
      <point x="320" y="560"/>
      <point x="339" y="476"/>
      <point x="339" y="320" type="curve" smooth="yes"/>
      <point x="339" y="120"/>
      <point x="294" y="15"/>
      <point x="209" y="15" type="curve" smooth="yes"/>
      <point x="115" y="15"/>
      <point x="76" y="120"/>
      <point x="76" y="320" type="curve" smooth="yes"/>
      <point x="76" y="584" type="line"/>
      <point x="44" y="584" type="line"/>
      <point x="44" y="320" type="line" smooth="yes"/>
      <point x="44" y="103"/>
      <point x="94" y="-10"/>
    </contour>
  </outline>
</glyph>
<glyph name="yod-hb" format="2">
  <advance width="210"/>
  <unicode hex="05D9"/>
  <anchor x="120" y="0" name="bottom"/>
  <anchor x="35" y="0" name="bottomleft"/>
  <anchor x="24" y="427" name="center"/>
  <anchor x="120" y="528" name="top"/>
  <anchor x="107" y="528" name="topleft"/>
  <outline>
    <contour>
      <point x="104" y="230" type="line"/>
      <point x="136" y="230" type="line"/>
      <point x="136" y="584" type="line"/>
      <point x="104" y="584" type="line"/>
    </contour>
    <contour>
      <point x="34" y="557" type="line"/>
      <point x="124" y="557" type="line"/>
      <point x="124" y="584" type="line"/>
      <point x="39" y="584" type="line"/>
    </contour>
  </outline>
</glyph>
<glyph name="finalkaf-hb" format="2">
  <advance width="363"/>
  <unicode hex="05DA"/>
  <anchor x="121" y="199" name="bottom"/>
  <anchor x="29" y="0" name="bottomleft"/>
  <anchor x="121" y="296" name="center"/>
  <anchor x="151" y="528" name="top"/>
  <anchor x="29" y="528" name="topleft"/>
  <outline>
    <contour>
      <point x="269" y="-198" type="line"/>
      <point x="303" y="-195" type="line"/>
      <point x="303" y="382" type="line" smooth="yes"/>
      <point x="303" y="509"/>
      <point x="261" y="584"/>
      <point x="155" y="584" type="curve" smooth="yes"/>
      <point x="31" y="584" type="line"/>
      <point x="26" y="557" type="line"/>
      <point x="155" y="557" type="line" smooth="yes"/>
      <point x="239" y="557"/>
      <point x="269" y="492"/>
      <point x="269" y="382" type="curve" smooth="yes"/>
    </contour>
  </outline>
</glyph>
<glyph name="kaf-hb" format="2">
  <advance width="335"/>
  <unicode hex="05DB"/>
  <anchor x="137" y="0" name="bottom"/>
  <anchor x="36" y="0" name="bottomleft"/>
  <anchor x="137" y="296" name="center"/>
  <anchor x="129" y="528" name="top"/>
  <anchor x="26" y="528" name="topleft"/>
  <outline>
    <contour>
      <point x="34" y="0" type="line"/>
      <point x="133" y="0" type="line" smooth="yes"/>
      <point x="253" y="0"/>
      <point x="301" y="83"/>
      <point x="301" y="292" type="curve" smooth="yes"/>
      <point x="301" y="501"/>
      <point x="253" y="584"/>
      <point x="133" y="584" type="curve" smooth="yes"/>
      <point x="39" y="584" type="line"/>
      <point x="34" y="557" type="line"/>
      <point x="133" y="557" type="line" smooth="yes"/>
      <point x="229" y="557"/>
      <point x="267" y="481"/>
      <point x="267" y="292" type="curve" smooth="yes"/>
      <point x="267" y="103"/>
      <point x="229" y="27"/>
      <point x="133" y="27" type="curve" smooth="yes"/>
      <point x="34" y="27" type="line"/>
    </contour>
  </outline>
</glyph>
<glyph name="lamed-hb" format="2">
  <advance width="331"/>
  <unicode hex="05DC"/>
  <anchor x="140" y="0" name="bottom"/>
  <anchor x="138" y="0" name="bottomleft"/>
  <anchor x="92" y="316" name="center"/>
  <anchor x="158" y="528" name="top"/>
  <anchor x="-27" y="528" name="topleft"/>
  <outline>
    <contour>
      <point x="57" y="584" type="line"/>
      <point x="57" y="760" type="line"/>
      <point x="25" y="755" type="line"/>
      <point x="25" y="557" type="line"/>
      <point x="260" y="557" type="line"/>
      <point x="127" y="0" type="line"/>
      <point x="159" y="0" type="line"/>
      <point x="292" y="557" type="line"/>
      <point x="299" y="584" type="line"/>
    </contour>
  </outline>
</glyph>
<glyph name="finalmem-hb" format="2">
  <advance width="432"/>
  <unicode hex="05DD"/>
  <anchor x="212" y="0" name="bottom"/>
  <anchor x="57" y="0" name="bottomleft"/>
  <anchor x="212" y="292" name="center"/>
  <anchor x="212" y="528" name="top"/>
  <anchor x="57" y="528" name="topleft"/>
  <outline>
    <contour>
      <point x="210" y="584" type="curve" smooth="yes"/>
      <point x="34" y="584" type="line"/>
      <point x="29" y="557" type="line"/>
      <point x="82" y="557" type="line"/>
      <point x="73" y="550"/>
      <point x="69" y="528"/>
      <point x="69" y="509" type="curve" smooth="yes"/>
      <point x="69" y="0" type="line"/>
      <point x="373" y="0" type="line"/>
      <point x="373" y="419" type="line" smooth="yes"/>
      <point x="373" y="527"/>
      <point x="316" y="584"/>
    </contour>
    <contour>
      <point x="341" y="27" type="line"/>
      <point x="101" y="27" type="line"/>
      <point x="101" y="509" type="line" smooth="yes"/>
      <point x="101" y="528"/>
      <point x="103" y="548"/>
      <point x="106" y="557" type="curve"/>
      <point x="205" y="557" type="line" smooth="yes"/>
      <point x="298" y="557"/>
      <point x="341" y="511"/>
      <point x="341" y="416" type="curve" smooth="yes"/>
    </contour>
  </outline>
</glyph>
<glyph name="mem-hb" format="2">
  <advance width="406"/>
  <unicode hex="05DE"/>
  <anchor x="219" y="0" name="bottom"/>
  <anchor x="54" y="0" name="bottomleft"/>
  <anchor x="217" y="296" name="center"/>
  <anchor x="252" y="528" name="top"/>
  <anchor x="72" y="528" name="topleft"/>
  <outline>
    <contour>
      <point x="44" y="0" type="line"/>
      <point x="76" y="0" type="line"/>
      <point x="117" y="407" type="line" smooth="yes"/>
      <point x="128" y="519"/>
      <point x="179" y="566"/>
      <point x="229" y="566" type="curve" smooth="yes"/>
      <point x="303" y="566"/>
      <point x="340" y="481"/>
      <point x="340" y="318" type="curve" smooth="yes"/>
      <point x="340" y="303" type="line" smooth="yes"/>
      <point x="340" y="122"/>
      <point x="294" y="27"/>
      <point x="208" y="27" type="curve" smooth="yes"/>
      <point x="159" y="27" type="line"/>
      <point x="155" y="0" type="line"/>
      <point x="209" y="0" type="line" smooth="yes"/>
      <point x="315" y="0"/>
      <point x="372" y="104"/>
      <point x="372" y="303" type="curve" smooth="yes"/>
      <point x="372" y="318" type="line" smooth="yes"/>
      <point x="372" y="499"/>
      <point x="324" y="593"/>
      <point x="229" y="593" type="curve" smooth="yes"/>
      <point x="167" y="593"/>
      <point x="123" y="544"/>
      <point x="107" y="471" type="curve"/>
      <point x="106" y="471" type="line"/>
      <point x="76" y="584" type="line"/>
      <point x="44" y="584" type="line"/>
      <point x="90" y="421" type="line"/>
    </contour>
  </outline>
</glyph>
<glyph name="finalnun-hb" format="2">
  <advance width="209"/>
  <unicode hex="05DF"/>
  <anchor x="44" y="0" name="bottomleft"/>
  <anchor x="63" y="296" name="center"/>
  <anchor x="112" y="528" name="top"/>
  <anchor x="44" y="528" name="topleft"/>
  <outline>
    <contour>
      <point x="108" y="-198" type="line"/>
      <point x="140" y="-195" type="line"/>
      <point x="140" y="584" type="line"/>
      <point x="108" y="584" type="line"/>
    </contour>
    <contour>
      <point x="38" y="557" type="line"/>
      <point x="128" y="557" type="line"/>
      <point x="128" y="584" type="line"/>
      <point x="43" y="584" type="line"/>
    </contour>
  </outline>
</glyph>
<glyph name="nun-hb" format="2">
  <advance width="236"/>
  <unicode hex="05E0"/>
  <anchor x="99" y="0" name="bottom"/>
  <anchor x="23" y="0" name="bottomleft"/>
  <anchor x="66" y="296" name="center"/>
  <anchor x="122" y="528" name="top"/>
  <anchor x="64" y="528" name="topleft"/>
  <outline>
    <contour>
      <point x="145" y="0" type="line"/>
      <point x="177" y="0" type="line"/>
      <point x="177" y="479" type="line" smooth="yes"/>
      <point x="177" y="548"/>
      <point x="149" y="584"/>
      <point x="95" y="584" type="curve" smooth="yes"/>
      <point x="45" y="584" type="line"/>
      <point x="40" y="557" type="line"/>
      <point x="90" y="557" type="line" smooth="yes"/>
      <point x="130" y="557"/>
      <point x="145" y="529"/>
      <point x="145" y="476" type="curve" smooth="yes"/>
    </contour>
    <contour>
      <point x="34" y="0" type="line"/>
      <point x="160" y="0" type="line"/>
      <point x="160" y="27" type="line"/>
      <point x="34" y="27" type="line"/>
    </contour>
  </outline>
</glyph>
<glyph name="samekh-hb" format="2">
  <advance width="405"/>
  <unicode hex="05E1"/>
  <anchor x="207" y="0" name="bottom"/>
  <anchor x="79" y="0" name="bottomleft"/>
  <anchor x="203" y="296" name="center"/>
  <anchor x="200" y="527" name="top"/>
  <anchor x="35" y="527" name="topleft"/>
  <outline>
    <contour>
      <point x="199" y="-10" type="curve" smooth="yes"/>
      <point x="314" y="-10"/>
      <point x="366" y="97"/>
      <point x="366" y="331" type="curve" smooth="yes"/>
      <point x="366" y="504"/>
      <point x="319" y="584"/>
      <point x="218" y="584" type="curve" smooth="yes"/>
      <point x="44" y="584" type="line"/>
      <point x="39" y="557" type="line"/>
      <point x="214" y="557" type="line" smooth="yes"/>
      <point x="296" y="557"/>
      <point x="334" y="485"/>
      <point x="334" y="328" type="curve" smooth="yes"/>
      <point x="334" y="113"/>
      <point x="292" y="15"/>
      <point x="199" y="15" type="curve" smooth="yes"/>
      <point x="118" y="15"/>
      <point x="81" y="103"/>
      <point x="81" y="295" type="curve" smooth="yes"/>
      <point x="81" y="403"/>
      <point x="97" y="483"/>
      <point x="131" y="552" type="curve"/>
      <point x="148" y="572" type="line"/>
      <point x="102" y="562" type="line"/>
      <point x="102" y="552" type="line"/>
      <point x="66" y="485"/>
      <point x="49" y="408"/>
      <point x="49" y="308" type="curve"/>
      <point x="49" y="295" type="line" smooth="yes"/>
      <point x="49" y="86"/>
      <point x="96" y="-10"/>
    </contour>
  </outline>
</glyph>
<glyph name="ayin-hb" format="2">
  <advance width="397"/>
  <unicode hex="05E2"/>
  <anchor x="158" y="0" name="bottom"/>
  <anchor x="1" y="0" name="bottomleft"/>
  <anchor x="216" y="325" name="center"/>
  <anchor x="208" y="528" name="top"/>
  <anchor x="54" y="528" name="topleft"/>
  <outline>
    <contour>
      <point x="30" y="-33" type="line"/>
      <point x="167" y="0" type="line" smooth="yes"/>
      <point x="309" y="34"/>
      <point x="339" y="109"/>
      <point x="353" y="456" type="curve" smooth="yes"/>
      <point x="358" y="584" type="line"/>
      <point x="326" y="584" type="line"/>
      <point x="320" y="452" type="line" smooth="yes"/>
      <point x="305" y="127"/>
      <point x="289" y="57"/>
      <point x="165" y="27" type="curve" smooth="yes"/>
      <point x="29" y="-6" type="line"/>
    </contour>
    <contour>
      <point x="150" y="24" type="line"/>
      <point x="171" y="24" type="line"/>
      <point x="176" y="58"/>
      <point x="169" y="83"/>
      <point x="165" y="102" type="curve"/>
      <point x="82" y="587" type="line"/>
      <point x="52" y="581" type="line"/>
    </contour>
  </outline>
</glyph>
<glyph name="finalpe-hb" format="2">
  <advance width="437"/>
  <unicode hex="05E3"/>
  <anchor x="268" y="235" name="bottom"/>
  <anchor x="46" y="0" name="bottomleft"/>
  <anchor x="199" y="399" name="center"/>
  <anchor x="174" y="528" name="top"/>
  <anchor x="40" y="528" name="topleft"/>
  <outline>
    <contour>
      <point x="339" y="-198" type="line"/>
      <point x="371" y="-195" type="line"/>
      <point x="371" y="297" type="line"/>
      <point x="371" y="482"/>
      <point x="314" y="594"/>
      <point x="195" y="594" type="curve" smooth="yes"/>
      <point x="99" y="594"/>
      <point x="39" y="513"/>
      <point x="39" y="399" type="curve" smooth="yes"/>
      <point x="39" y="303"/>
      <point x="84" y="235"/>
      <point x="151" y="222" type="curve" smooth="yes"/>
      <point x="167" y="219"/>
      <point x="175" y="220"/>
      <point x="182" y="220" type="curve"/>
      <point x="183" y="248" type="line"/>
      <point x="177" y="248"/>
      <point x="170" y="248"/>
      <point x="160" y="250" type="curve" smooth="yes"/>
      <point x="108" y="260"/>
      <point x="71" y="320"/>
      <point x="71" y="399" type="curve" smooth="yes"/>
      <point x="71" y="497"/>
      <point x="119" y="567"/>
      <point x="195" y="567" type="curve" smooth="yes"/>
      <point x="293" y="567"/>
      <point x="339" y="466"/>
      <point x="339" y="297" type="curve"/>
    </contour>
  </outline>
</glyph>
<glyph name="pe-hb" format="2">
  <advance width="410"/>
  <unicode hex="05E4"/>
  <anchor x="228" y="0" name="bottom"/>
  <anchor x="73" y="0" name="bottomleft"/>
  <anchor x="207" y="400" name="center"/>
  <anchor x="207" y="528" name="top"/>
  <anchor x="60" y="528" name="topleft"/>
  <outline>
    <contour>
      <point x="62" y="0" type="line"/>
      <point x="156" y="0" type="line" smooth="yes"/>
      <point x="296" y="0"/>
      <point x="371" y="122"/>
      <point x="371" y="297" type="curve" smooth="yes"/>
      <point x="371" y="482"/>
      <point x="314" y="594"/>
      <point x="195" y="594" type="curve" smooth="yes"/>
      <point x="99" y="594"/>
      <point x="39" y="513"/>
      <point x="39" y="399" type="curve" smooth="yes"/>
      <point x="39" y="303"/>
      <point x="84" y="235"/>
      <point x="151" y="222" type="curve" smooth="yes"/>
      <point x="167" y="219"/>
      <point x="175" y="220"/>
      <point x="182" y="220" type="curve"/>
      <point x="183" y="248" type="line"/>
      <point x="177" y="248"/>
      <point x="170" y="248"/>
      <point x="160" y="250" type="curve" smooth="yes"/>
      <point x="108" y="260"/>
      <point x="73" y="320"/>
      <point x="73" y="399" type="curve" smooth="yes"/>
      <point x="73" y="497"/>
      <point x="119" y="567"/>
      <point x="195" y="567" type="curve" smooth="yes"/>
      <point x="293" y="567"/>
      <point x="337" y="466"/>
      <point x="337" y="297" type="curve" smooth="yes"/>
      <point x="337" y="138"/>
      <point x="275" y="27"/>
      <point x="156" y="27" type="curve" smooth="yes"/>
      <point x="62" y="27" type="line"/>
    </contour>
  </outline>
</glyph>
<glyph name="finaltsadi-hb" format="2">
  <advance width="335"/>
  <unicode hex="05E5"/>
  <anchor x="24" y="0" name="bottomleft"/>
  <anchor x="167" y="450" name="center"/>
  <anchor x="166" y="528" name="top"/>
  <anchor x="24" y="528" name="topleft"/>
  <outline>
    <contour>
      <point x="212" y="-201" type="line"/>
      <point x="244" y="-196" type="line"/>
      <point x="222" y="-41" type="line"/>
      <point x="202" y="107"/>
      <point x="173" y="244"/>
      <point x="130" y="367" type="curve" smooth="yes"/>
      <point x="101" y="450"/>
      <point x="66" y="546"/>
      <point x="43" y="584" type="curve"/>
      <point x="9" y="584" type="line"/>
      <point x="35" y="537"/>
      <point x="70" y="451"/>
      <point x="100" y="363" type="curve" smooth="yes"/>
      <point x="141" y="243"/>
      <point x="170" y="108"/>
      <point x="190" y="-41" type="curve"/>
    </contour>
    <contour>
      <point x="147" y="217" type="line"/>
      <point x="257" y="270"/>
      <point x="279" y="429"/>
      <point x="284" y="496" type="curve" smooth="yes"/>
      <point x="291" y="584" type="line"/>
      <point x="259" y="584" type="line"/>
      <point x="251" y="504" type="line" smooth="yes"/>
      <point x="245" y="440"/>
      <point x="233" y="289"/>
      <point x="138" y="242" type="curve"/>
    </contour>
  </outline>
</glyph>
<glyph name="tsadi-hb" format="2">
  <advance width="368"/>
  <unicode hex="05E6"/>
  <anchor x="156" y="0" name="bottom"/>
  <anchor x="22" y="0" name="bottomleft"/>
  <anchor x="96" y="172" name="center"/>
  <anchor x="180" y="528" name="top"/>
  <anchor x="52" y="528" name="topleft"/>
  <outline>
    <contour>
      <point x="298" y="8" type="line"/>
      <point x="322" y="27" type="line"/>
      <point x="222" y="245" type="line"/>
      <point x="67" y="584" type="line"/>
      <point x="35" y="584" type="line"/>
    </contour>
    <contour>
      <point x="29" y="0" type="line"/>
      <point x="316" y="0" type="line"/>
      <point x="322" y="27" type="line"/>
      <point x="305" y="27" type="line"/>
      <point x="29" y="27" type="line"/>
    </contour>
    <contour>
      <point x="200" y="228" type="line"/>
      <point x="291" y="270"/>
      <point x="318" y="429"/>
      <point x="325" y="496" type="curve" smooth="yes"/>
      <point x="334" y="584" type="line"/>
      <point x="302" y="584" type="line"/>
      <point x="293" y="504" type="line" smooth="yes"/>
      <point x="286" y="440"/>
      <point x="267" y="292"/>
      <point x="190" y="255" type="curve"/>
    </contour>
  </outline>
</glyph>
<glyph name="qof-hb" format="2">
  <advance width="437"/>
  <unicode hex="05E7"/>
  <anchor x="233" y="0" name="bottom"/>
  <anchor x="37" y="0" name="bottomleft"/>
  <anchor x="200" y="296" name="center"/>
  <anchor x="236" y="528" name="top"/>
  <anchor x="77" y="528" name="topleft"/>
  <outline>
    <contour>
      <point x="225" y="0" type="line"/>
      <point x="257" y="0" type="line"/>
      <point x="397" y="557" type="line"/>
      <point x="403" y="584" type="line"/>
      <point x="54" y="584" type="line"/>
      <point x="49" y="557" type="line"/>
      <point x="365" y="557" type="line"/>
    </contour>
    <contour>
      <point x="74" y="-198" type="line"/>
      <point x="106" y="-195" type="line"/>
      <point x="106" y="400" type="line"/>
      <point x="74" y="395" type="line"/>
    </contour>
  </outline>
</glyph>
<glyph name="resh-hb" format="2">
  <advance width="339"/>
  <unicode hex="05E8"/>
  <anchor x="264" y="0" name="bottom"/>
  <anchor x="69" y="0" name="bottomleft"/>
  <anchor x="119" y="296" name="center"/>
  <anchor x="137" y="528" name="top"/>
  <anchor x="27" y="528" name="topleft"/>
  <outline>
    <contour>
      <point x="248" y="0" type="line"/>
      <point x="280" y="0" type="line"/>
      <point x="280" y="419" type="line" smooth="yes"/>
      <point x="280" y="527"/>
      <point x="243" y="584"/>
      <point x="137" y="584" type="curve" smooth="yes"/>
      <point x="29" y="584" type="line"/>
      <point x="24" y="557" type="line"/>
      <point x="132" y="557" type="line" smooth="yes"/>
      <point x="225" y="557"/>
      <point x="248" y="511"/>
      <point x="248" y="416" type="curve" smooth="yes"/>
    </contour>
  </outline>
</glyph>
<glyph name="shin-hb" format="2">
  <advance width="491"/>
  <unicode hex="05E9"/>
  <anchor x="242" y="0" name="bottom"/>
  <anchor x="87" y="0" name="bottomleft"/>
  <anchor x="283" y="213" name="center"/>
  <anchor x="257" y="528" name="top"/>
  <anchor x="72" y="528" name="topleft"/>
  <anchor x="420" y="528" name="topright"/>
  <outline>
    <contour>
      <point x="240" y="0" type="curve" smooth="yes"/>
      <point x="245" y="0" type="line" smooth="yes"/>
      <point x="377" y="0"/>
      <point x="437" y="92"/>
      <point x="437" y="293" type="curve" smooth="yes"/>
      <point x="437" y="584" type="line"/>
      <point x="405" y="584" type="line"/>
      <point x="405" y="290" type="line" smooth="yes"/>
      <point x="405" y="108"/>
      <point x="355" y="25"/>
      <point x="245" y="25" type="curve" smooth="yes"/>
      <point x="240" y="25" type="line" smooth="yes"/>
      <point x="134" y="25"/>
      <point x="86" y="108"/>
      <point x="86" y="290" type="curve"/>
      <point x="86" y="584" type="line"/>
      <point x="54" y="584" type="line"/>
      <point x="54" y="293" type="line" smooth="yes"/>
      <point x="54" y="92"/>
      <point x="112" y="0"/>
    </contour>
    <contour>
      <point x="65" y="224" type="line"/>
      <point x="168" y="220"/>
      <point x="261" y="308"/>
      <point x="261" y="518" type="curve" smooth="yes"/>
      <point x="261" y="584" type="line"/>
      <point x="229" y="584" type="line"/>
      <point x="229" y="515" type="line" smooth="yes"/>
      <point x="229" y="321"/>
      <point x="147" y="243"/>
      <point x="61" y="250" type="curve"/>
    </contour>
  </outline>
</glyph>
<glyph name="tav-hb" format="2">
  <advance width="436"/>
  <unicode hex="05EA"/>
  <anchor x="231" y="0" name="bottom"/>
  <anchor x="45" y="0" name="bottomleft"/>
  <anchor x="231" y="296" name="center"/>
  <anchor x="231" y="528" name="top"/>
  <anchor x="49" y="528" name="topleft"/>
  <outline>
    <contour>
      <point x="345" y="0" type="line"/>
      <point x="377" y="0" type="line"/>
      <point x="377" y="419" type="line" smooth="yes"/>
      <point x="377" y="527"/>
      <point x="340" y="584"/>
      <point x="234" y="584" type="curve" smooth="yes"/>
      <point x="99" y="584" type="line"/>
      <point x="99" y="557" type="line"/>
      <point x="229" y="557" type="line" smooth="yes"/>
      <point x="322" y="557"/>
      <point x="345" y="511"/>
      <point x="345" y="416" type="curve" smooth="yes"/>
    </contour>
    <contour>
      <point x="29" y="0" type="line"/>
      <point x="50" y="0" type="line" smooth="yes"/>
      <point x="121" y="0"/>
      <point x="131" y="44"/>
      <point x="131" y="120" type="curve" smooth="yes"/>
      <point x="131" y="572" type="line"/>
      <point x="99" y="572" type="line"/>
      <point x="99" y="134" type="line" smooth="yes"/>
      <point x="99" y="60"/>
      <point x="105" y="27"/>
      <point x="50" y="27" type="curve" smooth="yes"/>
      <point x="34" y="27" type="line"/>
    </contour>
    <contour>
      <point x="41" y="557" type="line"/>
      <point x="129" y="557" type="line"/>
      <point x="129" y="584" type="line"/>
      <point x="46" y="584" type="line"/>
    </contour>
  </outline>
</glyph>
<glyph name="geresh-hb" format="2">
  <advance width="135"/>
  <unicode hex="05F3"/>
  <outline>
    <contour>
      <point x="25" y="365" type="curve"/>
      <point x="43" y="365" type="line"/>
      <point x="68" y="437"/>
      <point x="85" y="506"/>
      <point x="99" y="573" type="curve"/>
      <point x="98" y="584" type="line"/>
      <point x="69" y="584" type="line"/>
      <point x="62" y="512"/>
      <point x="47" y="448"/>
    </contour>
  </outline>
</glyph>
<glyph name="gershayim-hb" format="2">
  <advance width="243"/>
  <unicode hex="05F4"/>
  <outline>
    <contour>
      <point x="25" y="365" type="curve"/>
      <point x="43" y="365" type="line"/>
      <point x="68" y="437"/>
      <point x="85" y="506"/>
      <point x="99" y="573" type="curve"/>
      <point x="98" y="584" type="line"/>
      <point x="69" y="584" type="line"/>
      <point x="62" y="512"/>
      <point x="47" y="448"/>
    </contour>
    <contour>
      <point x="133" y="365" type="curve"/>
      <point x="151" y="365" type="line"/>
      <point x="176" y="437"/>
      <point x="193" y="506"/>
      <point x="207" y="573" type="curve"/>
      <point x="206" y="584" type="line"/>
      <point x="177" y="584" type="line"/>
      <point x="170" y="512"/>
      <point x="155" y="448"/>
    </contour>
  </outline>
</glyph>
<glyph name="uni200F" format="2">
  <unicode hex="200F"/>
  <note>
uni200F
</note>
  <outline>
    <contour>
      <point x="17" y="-45" type="line"/>
      <point x="17" y="592" type="line"/>
      <point x="-147" y="592" type="line"/>
      <point x="-81" y="655" type="line"/>
      <point x="-104" y="679" type="line"/>
      <point x="-210" y="574" type="line"/>
      <point x="-104" y="470" type="line"/>
      <point x="-81" y="494" type="line"/>
      <point x="-147" y="557" type="line"/>
      <point x="-18" y="557" type="line"/>
      <point x="-18" y="-45" type="line"/>
    </contour>
  </outline>
</glyph>
<glyph name="hyphentwo" format="2">
  <advance width="263"/>
  <unicode hex="2010"/>
  <outline>
    <contour>
      <point x="26" y="259" type="line"/>
      <point x="237" y="259" type="line"/>
      <point x="237" y="286" type="line"/>
      <point x="26" y="286" type="line"/>
    </contour>
  </outline>
</glyph>
<glyph name="sheqel" format="2">
  <advance width="579"/>
  <unicode hex="20AA"/>
  <note>
sheqel
</note>
  <outline>
    <contour>
      <point x="211" y="0" type="line"/>
      <point x="364" y="0" type="line" smooth="yes"/>
      <point x="465" y="0"/>
      <point x="509" y="38"/>
      <point x="509" y="150" type="curve" smooth="yes"/>
      <point x="509" y="584" type="line"/>
      <point x="483" y="584" type="line"/>
      <point x="483" y="155" type="line" smooth="yes"/>
      <point x="483" y="53"/>
      <point x="447" y="27"/>
      <point x="359" y="27" type="curve" smooth="yes"/>
      <point x="237" y="27" type="line"/>
      <point x="237" y="434" type="line"/>
      <point x="211" y="434" type="line"/>
    </contour>
    <contour>
      <point x="75" y="0" type="line"/>
      <point x="101" y="0" type="line"/>
      <point x="101" y="557" type="line"/>
      <point x="223" y="557" type="line" smooth="yes"/>
      <point x="311" y="557"/>
      <point x="347" y="531"/>
      <point x="347" y="429" type="curve" smooth="yes"/>
      <point x="347" y="150" type="line"/>
      <point x="373" y="150" type="line"/>
      <point x="373" y="434" type="line" smooth="yes"/>
      <point x="373" y="546"/>
      <point x="329" y="584"/>
      <point x="228" y="584" type="curve" smooth="yes"/>
      <point x="75" y="584" type="line"/>
    </contour>
  </outline>
</glyph>
<glyph name="ayinaltone-hb" format="2">
  <advance width="413"/>
  <unicode hex="FB20"/>
  <note>
alternativeayin
</note>
  <anchor x="231" y="0" name="bottom"/>
  <anchor x="22" y="0" name="bottomleft"/>
  <anchor x="219" y="528" name="top"/>
  <anchor x="65" y="528" name="topleft"/>
  <outline>
    <contour>
      <point x="31" y="0" type="line"/>
      <point x="158" y="0" type="line" smooth="yes"/>
      <point x="323" y="0"/>
      <point x="370" y="109"/>
      <point x="384" y="456" type="curve" smooth="yes"/>
      <point x="389" y="584" type="line"/>
      <point x="357" y="584" type="line"/>
      <point x="351" y="452" type="line" smooth="yes"/>
      <point x="336" y="127"/>
      <point x="301" y="27"/>
      <point x="156" y="27" type="curve" smooth="yes"/>
      <point x="30" y="27" type="line"/>
    </contour>
    <contour>
      <point x="157" y="17" type="line"/>
      <point x="171" y="17" type="line"/>
      <point x="178" y="48"/>
      <point x="174" y="83"/>
      <point x="171" y="102" type="curve"/>
      <point x="75" y="587" type="line"/>
      <point x="44" y="581" type="line"/>
    </contour>
  </outline>
</glyph>
<glyph name="widealef-hb" format="2">
  <advance width="542"/>
  <unicode hex="FB21"/>
  <note>
alefwide
</note>
  <outline>
    <contour>
      <point x="485" y="0" type="curve"/>
      <point x="520" y="0" type="line"/>
      <point x="433" y="148"/>
      <point x="317" y="307"/>
      <point x="237" y="405" type="curve" smooth="yes"/>
      <point x="156" y="504"/>
      <point x="123" y="542"/>
      <point x="87" y="584" type="curve"/>
      <point x="51" y="584" type="line"/>
      <point x="86" y="543"/>
      <point x="122" y="502"/>
      <point x="203" y="401" type="curve" smooth="yes"/>
      <point x="281" y="303"/>
      <point x="398" y="149"/>
    </contour>
    <contour>
      <point x="22" y="0" type="line"/>
      <point x="54" y="0" type="line"/>
      <point x="78" y="174" type="line" smooth="yes"/>
      <point x="93" y="283"/>
      <point x="126" y="356"/>
      <point x="210" y="404" type="curve"/>
      <point x="194" y="426" type="line"/>
      <point x="102" y="373"/>
      <point x="63" y="294"/>
      <point x="46" y="171" type="curve" smooth="yes"/>
    </contour>
    <contour>
      <point x="349" y="248" type="line"/>
      <point x="441" y="301"/>
      <point x="494" y="377"/>
      <point x="504" y="501" type="curve" smooth="yes"/>
      <point x="511" y="584" type="line"/>
      <point x="479" y="584" type="line"/>
      <point x="472" y="498" type="line" smooth="yes"/>
      <point x="463" y="388"/>
      <point x="417" y="318"/>
      <point x="333" y="270" type="curve"/>
    </contour>
  </outline>
</glyph>
<glyph name="widedalet-hb" format="2">
  <advance width="502"/>
  <unicode hex="FB22"/>
  <note>
daletwide
</note>
  <outline>
    <contour>
      <point x="341" y="0" type="line"/>
      <point x="373" y="0" type="line"/>
      <point x="373" y="509" type="line"/>
      <point x="373" y="528"/>
      <point x="375" y="548"/>
      <point x="378" y="557" type="curve"/>
      <point x="354" y="557" type="line"/>
      <point x="345" y="550"/>
      <point x="341" y="528"/>
      <point x="341" y="509" type="curve"/>
    </contour>
    <contour>
      <point x="35" y="557" type="line"/>
      <point x="463" y="557" type="line"/>
      <point x="468" y="584" type="line"/>
      <point x="35" y="584" type="line"/>
    </contour>
  </outline>
</glyph>
<glyph name="widehe-hb" format="2">
  <advance width="556"/>
  <unicode hex="FB23"/>
  <note>
hewide
</note>
  <outline>
    <contour>
      <point x="474" y="0" type="line"/>
      <point x="506" y="0" type="line"/>
      <point x="506" y="419" type="line" smooth="yes"/>
      <point x="506" y="527"/>
      <point x="449" y="584"/>
      <point x="343" y="584" type="curve" smooth="yes"/>
      <point x="55" y="584" type="line"/>
      <point x="50" y="557" type="line"/>
      <point x="338" y="557" type="line" smooth="yes"/>
      <point x="431" y="557"/>
      <point x="474" y="511"/>
      <point x="474" y="416" type="curve" smooth="yes"/>
    </contour>
    <contour>
      <point x="69" y="0" type="line"/>
      <point x="101" y="0" type="line"/>
      <point x="101" y="355" type="line"/>
      <point x="69" y="350" type="line"/>
    </contour>
  </outline>
</glyph>
<glyph name="widekaf-hb" format="2">
  <advance width="506"/>
  <unicode hex="FB24"/>
  <note>
kafwide
</note>
  <outline>
    <contour>
      <point x="62" y="0" type="line"/>
      <point x="211" y="0" type="line" smooth="yes"/>
      <point x="367" y="0"/>
      <point x="449" y="100"/>
      <point x="449" y="292" type="curve" smooth="yes"/>
      <point x="449" y="484"/>
      <point x="367" y="584"/>
      <point x="211" y="584" type="curve" smooth="yes"/>
      <point x="67" y="584" type="line"/>
      <point x="62" y="557" type="line"/>
      <point x="211" y="557" type="line" smooth="yes"/>
      <point x="345" y="557"/>
      <point x="415" y="466"/>
      <point x="415" y="292" type="curve" smooth="yes"/>
      <point x="415" y="118"/>
      <point x="345" y="27"/>
      <point x="211" y="27" type="curve" smooth="yes"/>
      <point x="62" y="27" type="line"/>
    </contour>
  </outline>
</glyph>
<glyph name="widelamed-hb" format="2">
  <advance width="461"/>
  <unicode hex="FB25"/>
  <note>
lamedwide
</note>
  <outline>
    <contour>
      <point x="67" y="584" type="line"/>
      <point x="67" y="760" type="line"/>
      <point x="35" y="755" type="line"/>
      <point x="35" y="557" type="line"/>
      <point x="400" y="557" type="line"/>
      <point x="220" y="0" type="line"/>
      <point x="252" y="0" type="line"/>
      <point x="432" y="557" type="line"/>
      <point x="429" y="584" type="line"/>
    </contour>
  </outline>
</glyph>
<glyph name="finalwidemem-hb" format="2">
  <advance width="623"/>
  <unicode hex="FB26"/>
  <note>
finalmemwide
</note>
  <outline>
    <contour>
      <point x="403" y="584" type="curve" smooth="yes"/>
      <point x="47" y="584" type="line"/>
      <point x="42" y="557" type="line"/>
      <point x="125" y="557" type="line"/>
      <point x="116" y="550"/>
      <point x="112" y="528"/>
      <point x="112" y="509" type="curve" smooth="yes"/>
      <point x="112" y="0" type="line"/>
      <point x="566" y="0" type="line"/>
      <point x="566" y="419" type="line" smooth="yes"/>
      <point x="566" y="527"/>
      <point x="509" y="584"/>
    </contour>
    <contour>
      <point x="534" y="27" type="line"/>
      <point x="144" y="27" type="line"/>
      <point x="144" y="509" type="line" smooth="yes"/>
      <point x="144" y="528"/>
      <point x="146" y="548"/>
      <point x="149" y="557" type="curve"/>
      <point x="398" y="557" type="line" smooth="yes"/>
      <point x="491" y="557"/>
      <point x="534" y="511"/>
      <point x="534" y="416" type="curve" smooth="yes"/>
    </contour>
  </outline>
</glyph>
<glyph name="wideresh-hb" format="2">
  <advance width="472"/>
  <unicode hex="FB27"/>
  <note>
reshwide
</note>
  <outline>
    <contour>
      <point x="381" y="0" type="line"/>
      <point x="413" y="0" type="line"/>
      <point x="413" y="419" type="line" smooth="yes"/>
      <point x="413" y="527"/>
      <point x="356" y="584"/>
      <point x="250" y="584" type="curve" smooth="yes"/>
      <point x="43" y="584" type="line"/>
      <point x="38" y="557" type="line"/>
      <point x="245" y="557" type="line" smooth="yes"/>
      <point x="338" y="557"/>
      <point x="381" y="511"/>
      <point x="381" y="416" type="curve" smooth="yes"/>
    </contour>
  </outline>
</glyph>
<glyph name="widetav-hb" format="2">
  <advance width="637"/>
  <unicode hex="FB28"/>
  <note>
tavwide
</note>
  <outline>
    <contour>
      <point x="536" y="0" type="line"/>
      <point x="568" y="0" type="line"/>
      <point x="568" y="419" type="line" smooth="yes"/>
      <point x="568" y="527"/>
      <point x="511" y="584"/>
      <point x="405" y="584" type="curve" smooth="yes"/>
      <point x="160" y="584" type="line"/>
      <point x="160" y="557" type="line"/>
      <point x="400" y="557" type="line" smooth="yes"/>
      <point x="493" y="557"/>
      <point x="536" y="511"/>
      <point x="536" y="416" type="curve" smooth="yes"/>
    </contour>
    <contour>
      <point x="40" y="0" type="line"/>
      <point x="81" y="0" type="line" smooth="yes"/>
      <point x="152" y="0"/>
      <point x="192" y="44"/>
      <point x="192" y="120" type="curve" smooth="yes"/>
      <point x="192" y="572" type="line"/>
      <point x="160" y="572" type="line"/>
      <point x="160" y="134" type="line" smooth="yes"/>
      <point x="160" y="60"/>
      <point x="136" y="27"/>
      <point x="81" y="27" type="curve" smooth="yes"/>
      <point x="45" y="27" type="line"/>
    </contour>
    <contour>
      <point x="77" y="557" type="line"/>
      <point x="175" y="557" type="line"/>
      <point x="175" y="584" type="line"/>
      <point x="82" y="584" type="line"/>
    </contour>
  </outline>
</glyph>
<glyph name="alternativeplus-hb" format="2">
  <advance width="490"/>
  <unicode hex="FB29"/>
  <note>
alt_plussign
</note>
  <outline>
    <contour>
      <point x="257" y="365" type="line"/>
      <point x="257" y="583" type="line"/>
      <point x="233" y="583" type="line"/>
      <point x="233" y="365" type="line"/>
      <point x="55" y="365" type="line"/>
      <point x="55" y="341" type="line"/>
      <point x="435" y="341" type="line"/>
      <point x="435" y="365" type="line"/>
    </contour>
  </outline>
</glyph>
<glyph name="aleflamed-hb" format="2">
  <advance width="426"/>
  <unicode hex="FB4F"/>
  <note>
aleflamed
</note>
  <anchor x="213" y="0" name="caret_1"/>
  <outline>
    <contour>
      <point x="327" y="0" type="curve"/>
      <point x="359" y="0" type="line"/>
      <point x="333" y="72"/>
      <point x="302" y="149"/>
      <point x="271" y="220" type="curve"/>
      <point x="342" y="281"/>
      <point x="346" y="355"/>
      <point x="355" y="471" type="curve" smooth="yes"/>
      <point x="364" y="584" type="line"/>
      <point x="332" y="584" type="line"/>
      <point x="323" y="468" type="line" smooth="yes"/>
      <point x="315" y="369"/>
      <point x="317" y="302"/>
      <point x="259" y="248" type="curve"/>
      <point x="231" y="312"/>
      <point x="202" y="370"/>
      <point x="177" y="415" type="curve" smooth="yes"/>
      <point x="121" y="514"/>
      <point x="106" y="542"/>
      <point x="79" y="584" type="curve"/>
      <point x="47" y="584" type="line"/>
      <point x="47" y="760" type="line"/>
      <point x="15" y="755" type="line"/>
      <point x="15" y="557" type="line"/>
      <point x="62" y="557" type="line"/>
      <point x="82" y="526"/>
      <point x="104" y="489"/>
      <point x="146" y="411" type="curve" smooth="yes"/>
      <point x="199" y="312"/>
      <point x="273" y="149"/>
    </contour>
  </outline>
</glyph>
<glyph name="hatafpatah_zerowidthjoiner_siluqleft-hb" format="2">
  <anchor x="168" y="0" name="_bottom"/>
  <outline>
    <contour>
      <point x="60" y="-107" type="line"/>
      <point x="186" y="-107" type="line"/>
      <point x="186" y="-82" type="line"/>
      <point x="60" y="-82" type="line"/>
    </contour>
    <contour>
      <point x="221" y="-211" type="line"/>
      <point x="246" y="-211" type="line"/>
      <point x="246" y="-66" type="line"/>
      <point x="221" y="-66" type="line"/>
    </contour>
    <contour>
      <point x="304" y="-116" type="curve" smooth="yes"/>
      <point x="316" y="-116"/>
      <point x="326" y="-106"/>
      <point x="326" y="-93" type="curve" smooth="yes"/>
      <point x="326" y="-81"/>
      <point x="316" y="-71"/>
      <point x="304" y="-71" type="curve" smooth="yes"/>
      <point x="291" y="-71"/>
      <point x="281" y="-81"/>
      <point x="281" y="-93" type="curve" smooth="yes"/>
      <point x="281" y="-106"/>
      <point x="291" y="-116"/>
    </contour>
    <contour>
      <point x="304" y="-206" type="curve" smooth="yes"/>
      <point x="316" y="-206"/>
      <point x="326" y="-196"/>
      <point x="326" y="-183" type="curve" smooth="yes"/>
      <point x="326" y="-171"/>
      <point x="316" y="-161"/>
      <point x="304" y="-161" type="curve" smooth="yes"/>
      <point x="291" y="-161"/>
      <point x="281" y="-171"/>
      <point x="281" y="-183" type="curve" smooth="yes"/>
      <point x="281" y="-196"/>
      <point x="291" y="-206"/>
    </contour>
  </outline>
</glyph>
<glyph name="hatafqamats_zerowidthjoiner_siluqleft-hb" format="2">
  <anchor x="164" y="0" name="_bottom"/>
  <outline>
    <contour>
      <point x="79" y="-196" type="line"/>
      <point x="104" y="-196" type="line"/>
      <point x="104" y="-106" type="line"/>
      <point x="156" y="-106" type="line"/>
      <point x="156" y="-81" type="line"/>
      <point x="28" y="-81" type="line"/>
      <point x="28" y="-106" type="line"/>
      <point x="79" y="-106" type="line"/>
    </contour>
    <contour>
      <point x="191" y="-211" type="line"/>
      <point x="216" y="-211" type="line"/>
      <point x="216" y="-66" type="line"/>
      <point x="191" y="-66" type="line"/>
    </contour>
    <contour>
      <point x="273" y="-116" type="curve" smooth="yes"/>
      <point x="285" y="-116"/>
      <point x="295" y="-106"/>
      <point x="295" y="-93" type="curve" smooth="yes"/>
      <point x="295" y="-81"/>
      <point x="285" y="-71"/>
      <point x="273" y="-71" type="curve" smooth="yes"/>
      <point x="260" y="-71"/>
      <point x="250" y="-81"/>
      <point x="250" y="-93" type="curve" smooth="yes"/>
      <point x="250" y="-106"/>
      <point x="260" y="-116"/>
    </contour>
    <contour>
      <point x="273" y="-206" type="curve" smooth="yes"/>
      <point x="285" y="-206"/>
      <point x="295" y="-196"/>
      <point x="295" y="-183" type="curve" smooth="yes"/>
      <point x="295" y="-171"/>
      <point x="285" y="-161"/>
      <point x="273" y="-161" type="curve" smooth="yes"/>
      <point x="260" y="-161"/>
      <point x="250" y="-171"/>
      <point x="250" y="-183" type="curve" smooth="yes"/>
      <point x="250" y="-196"/>
      <point x="260" y="-206"/>
    </contour>
  </outline>
</glyph>
